<svg width="169" height="41" viewBox="0 0 169 41" fill="none" xmlns="http://www.w3.org/2000/svg">
<rect x="27.25" y="19.3594" width="4.27003" height="13.06" fill="#D9D9D9"/>
<rect x="27.25" y="2.65234" width="4.27003" height="29.7674" fill="white"/>
<rect x="18.6953" y="15.3203" width="4.27003" height="17.1001" fill="white"/>
<rect x="10.1562" y="23.8711" width="4.27003" height="8.5504" fill="white"/>
<path fill-rule="evenodd" clip-rule="evenodd" d="M13.2236 6.03028H10.7104C6.76693 6.03028 3.57013 9.05499 3.57013 12.7861V30.3652C3.57013 34.0963 6.76693 37.1211 10.7104 37.1211H29.2896C33.2331 37.1211 36.4299 34.0963 36.4299 30.3652V12.7861C36.4299 12.6841 36.4275 12.5826 36.4227 12.4817H39.9953C39.9984 12.5828 40 12.6843 40 12.7861V30.3652C40 35.9619 35.2048 40.499 29.2896 40.499H10.7104C4.7952 40.499 0 35.9619 0 30.3652V12.7861C0 7.1894 4.7952 2.65234 10.7104 2.65234H13.2236V6.03028Z" fill="#317C6F"/>
<path d="M19.4531 4.43458L13.2155 7.84203L13.2155 1.02713L19.4531 4.43458Z" fill="#317C6F"/>
<path d="M54.208 31.5V9.1H68.096V11.948H57.6V18.508H66.656V21.356H57.6V31.5H54.208ZM72.8065 12.844C72.1878 12.844 71.6545 12.6307 71.2065 12.204C70.7798 11.756 70.5665 11.212 70.5665 10.572C70.5665 9.95333 70.7798 9.43067 71.2065 9.004C71.6545 8.57733 72.1878 8.364 72.8065 8.364C73.4465 8.364 73.9798 8.57733 74.4065 9.004C74.8545 9.43067 75.0785 9.95333 75.0785 10.572C75.0785 11.212 74.8545 11.756 74.4065 12.204C73.9798 12.6307 73.4465 12.844 72.8065 12.844ZM71.1105 31.5V15.628H74.5025V31.5H71.1105ZM78.3553 31.5V15.628H81.6193L81.6833 17.964C82.2166 17.0893 82.9526 16.4173 83.8913 15.948C84.8513 15.4787 85.8646 15.244 86.9313 15.244C88.7873 15.244 90.2913 15.8307 91.4433 17.004C92.5953 18.156 93.1713 19.884 93.1713 22.188V31.5H89.7793V22.604C89.7793 21.1747 89.4593 20.076 88.8193 19.308C88.1793 18.5187 87.2193 18.124 85.9392 18.124C84.6806 18.124 83.6673 18.5613 82.8993 19.436C82.1313 20.2893 81.7473 21.4733 81.7473 22.988V31.5H78.3553ZM103.263 31.5L95.3908 9.1H98.8468L105.279 28.3L108.191 19.692L104.479 9.1H107.903L110.431 16.972L112.959 9.1H116.415L112.671 19.692L115.583 28.3L122.015 9.1H125.471L117.599 31.5H113.631L110.431 22.316L107.231 31.5H103.263ZM129.338 12.844C128.719 12.844 128.186 12.6307 127.738 12.204C127.311 11.756 127.098 11.212 127.098 10.572C127.098 9.95333 127.311 9.43067 127.738 9.004C128.186 8.57733 128.719 8.364 129.338 8.364C129.978 8.364 130.511 8.57733 130.938 9.004C131.386 9.43067 131.61 9.95333 131.61 10.572C131.61 11.212 131.386 11.756 130.938 12.204C130.511 12.6307 129.978 12.844 129.338 12.844ZM127.642 31.5V15.628H131.034V31.5H127.642ZM142.279 31.884C140.721 31.884 139.345 31.532 138.151 30.828C136.956 30.124 136.017 29.1533 135.335 27.916C134.652 26.6573 134.311 25.2067 134.311 23.564C134.311 21.9427 134.641 20.5027 135.303 19.244C135.964 17.9853 136.892 17.004 138.087 16.3C139.281 15.596 140.679 15.244 142.279 15.244C144.177 15.244 145.777 15.7347 147.079 16.716C148.401 17.676 149.265 19.0307 149.671 20.78H146.087C145.895 19.9907 145.447 19.3507 144.743 18.86C144.06 18.3693 143.228 18.124 142.247 18.124C141.244 18.124 140.412 18.38 139.751 18.892C139.089 19.3827 138.588 20.044 138.247 20.876C137.927 21.6867 137.766 22.5827 137.766 23.564C137.766 24.588 137.937 25.516 138.279 26.348C138.641 27.1587 139.153 27.8093 139.815 28.3C140.497 28.7693 141.308 29.004 142.247 29.004C143.207 29.004 144.028 28.78 144.711 28.332C145.393 27.8627 145.852 27.1907 146.087 26.316H149.671C149.415 27.4467 148.945 28.428 148.263 29.26C147.58 30.092 146.727 30.7427 145.703 31.212C144.679 31.66 143.537 31.884 142.279 31.884ZM160.059 31.884C158.502 31.884 157.126 31.532 155.931 30.828C154.736 30.124 153.798 29.1427 153.115 27.884C152.454 26.6253 152.123 25.1853 152.123 23.564C152.123 21.8787 152.454 20.4173 153.115 19.18C153.776 17.9427 154.704 16.9827 155.899 16.3C157.115 15.596 158.512 15.244 160.091 15.244C161.627 15.244 162.971 15.5853 164.123 16.268C165.275 16.9293 166.171 17.836 166.811 18.988C167.472 20.14 167.803 21.452 167.803 22.924C167.803 23.2227 167.792 23.4787 167.771 23.692C167.771 23.9053 167.75 24.1613 167.707 24.46H155.515C155.579 25.356 155.803 26.156 156.187 26.86C156.571 27.5427 157.094 28.0867 157.755 28.492C158.416 28.876 159.174 29.068 160.027 29.068C160.944 29.068 161.723 28.8653 162.363 28.46C163.024 28.0333 163.515 27.436 163.835 26.668H167.355C167.078 27.628 166.608 28.5027 165.947 29.292C165.307 30.0813 164.496 30.7107 163.515 31.18C162.534 31.6493 161.382 31.884 160.059 31.884ZM155.547 22.06H164.347C164.304 20.8227 163.867 19.852 163.035 19.148C162.203 18.4227 161.19 18.06 159.995 18.06C158.928 18.06 157.958 18.3907 157.083 19.052C156.208 19.7133 155.696 20.716 155.547 22.06Z" fill="white"/>
</svg>
