<svg width="170" height="40" viewBox="0 0 170 40" fill="none" xmlns="http://www.w3.org/2000/svg">
<rect x="27.751" y="18.8594" width="4.27003" height="13.06" fill="#D9D9D9"/>
<rect x="27.751" y="2.15234" width="4.27003" height="29.7674" fill="white"/>
<rect x="19.1968" y="14.8203" width="4.27003" height="17.1001" fill="white"/>
<rect x="10.6572" y="23.3711" width="4.27003" height="8.5504" fill="white"/>
<path fill-rule="evenodd" clip-rule="evenodd" d="M13.7236 5.53028H11.2104C7.26693 5.53028 4.07013 8.55499 4.07013 12.2861V29.8652C4.07013 33.5963 7.26693 36.6211 11.2104 36.6211H29.7896C33.7331 36.6211 36.9299 33.5963 36.9299 29.8652V12.2861C36.9299 12.1841 36.9275 12.0826 36.9227 11.9817H40.4953C40.4984 12.0828 40.5 12.1843 40.5 12.2861V29.8652C40.5 35.4619 35.7048 39.999 29.7896 39.999H11.2104C5.2952 39.999 0.5 35.4619 0.5 29.8652V12.2861C0.5 6.6894 5.2952 2.15234 11.2104 2.15234H13.7236V5.53028Z" fill="#317C6F"/>
<path d="M19.9546 3.93458L13.7169 7.34203L13.7169 0.527134L19.9546 3.93458Z" fill="#317C6F"/>
<path d="M54.708 31V8.6H68.596V11.448H58.1V18.008H67.156V20.856H58.1V31H54.708ZM73.3065 12.344C72.6878 12.344 72.1545 12.1307 71.7065 11.704C71.2798 11.256 71.0665 10.712 71.0665 10.072C71.0665 9.45333 71.2798 8.93067 71.7065 8.504C72.1545 8.07733 72.6878 7.864 73.3065 7.864C73.9465 7.864 74.4798 8.07733 74.9065 8.504C75.3545 8.93067 75.5785 9.45333 75.5785 10.072C75.5785 10.712 75.3545 11.256 74.9065 11.704C74.4798 12.1307 73.9465 12.344 73.3065 12.344ZM71.6105 31V15.128H75.0025V31H71.6105ZM78.8553 31V15.128H82.1193L82.1833 17.464C82.7166 16.5893 83.4526 15.9173 84.3913 15.448C85.3513 14.9787 86.3646 14.744 87.4313 14.744C89.2873 14.744 90.7913 15.3307 91.9433 16.504C93.0953 17.656 93.6713 19.384 93.6713 21.688V31H90.2793V22.104C90.2793 20.6747 89.9593 19.576 89.3193 18.808C88.6793 18.0187 87.7193 17.624 86.4392 17.624C85.1806 17.624 84.1673 18.0613 83.3993 18.936C82.6313 19.7893 82.2473 20.9733 82.2473 22.488V31H78.8553ZM103.763 31L95.8908 8.6H99.3468L105.779 27.8L108.691 19.192L104.979 8.6H108.403L110.931 16.472L113.459 8.6H116.915L113.171 19.192L116.083 27.8L122.515 8.6H125.971L118.099 31H114.131L110.931 21.816L107.731 31H103.763ZM129.838 12.344C129.219 12.344 128.686 12.1307 128.238 11.704C127.811 11.256 127.598 10.712 127.598 10.072C127.598 9.45333 127.811 8.93067 128.238 8.504C128.686 8.07733 129.219 7.864 129.838 7.864C130.478 7.864 131.011 8.07733 131.438 8.504C131.886 8.93067 132.11 9.45333 132.11 10.072C132.11 10.712 131.886 11.256 131.438 11.704C131.011 12.1307 130.478 12.344 129.838 12.344ZM128.142 31V15.128H131.534V31H128.142ZM142.779 31.384C141.221 31.384 139.845 31.032 138.651 30.328C137.456 29.624 136.517 28.6533 135.835 27.416C135.152 26.1573 134.811 24.7067 134.811 23.064C134.811 21.4427 135.141 20.0027 135.803 18.744C136.464 17.4853 137.392 16.504 138.587 15.8C139.781 15.096 141.179 14.744 142.779 14.744C144.677 14.744 146.277 15.2347 147.579 16.216C148.901 17.176 149.765 18.5307 150.171 20.28H146.587C146.395 19.4907 145.947 18.8507 145.243 18.36C144.56 17.8693 143.728 17.624 142.747 17.624C141.744 17.624 140.912 17.88 140.251 18.392C139.589 18.8827 139.088 19.544 138.747 20.376C138.427 21.1867 138.266 22.0827 138.266 23.064C138.266 24.088 138.437 25.016 138.779 25.848C139.141 26.6587 139.653 27.3093 140.315 27.8C140.997 28.2693 141.808 28.504 142.747 28.504C143.707 28.504 144.528 28.28 145.211 27.832C145.893 27.3627 146.352 26.6907 146.587 25.816H150.171C149.915 26.9467 149.445 27.928 148.763 28.76C148.08 29.592 147.227 30.2427 146.203 30.712C145.179 31.16 144.037 31.384 142.779 31.384ZM160.559 31.384C159.002 31.384 157.626 31.032 156.431 30.328C155.236 29.624 154.298 28.6427 153.615 27.384C152.954 26.1253 152.623 24.6853 152.623 23.064C152.623 21.3787 152.954 19.9173 153.615 18.68C154.276 17.4427 155.204 16.4827 156.399 15.8C157.615 15.096 159.012 14.744 160.591 14.744C162.127 14.744 163.471 15.0853 164.623 15.768C165.775 16.4293 166.671 17.336 167.311 18.488C167.972 19.64 168.303 20.952 168.303 22.424C168.303 22.7227 168.292 22.9787 168.271 23.192C168.271 23.4053 168.25 23.6613 168.207 23.96H156.015C156.079 24.856 156.303 25.656 156.687 26.36C157.071 27.0427 157.594 27.5867 158.255 27.992C158.916 28.376 159.674 28.568 160.527 28.568C161.444 28.568 162.223 28.3653 162.863 27.96C163.524 27.5333 164.015 26.936 164.335 26.168H167.855C167.578 27.128 167.108 28.0027 166.447 28.792C165.807 29.5813 164.996 30.2107 164.015 30.68C163.034 31.1493 161.882 31.384 160.559 31.384ZM156.047 21.56H164.847C164.804 20.3227 164.367 19.352 163.535 18.648C162.703 17.9227 161.69 17.56 160.495 17.56C159.428 17.56 158.458 17.8907 157.583 18.552C156.708 19.2133 156.196 20.216 156.047 21.56Z" fill="white"/>
</svg>
