<svg width="87" height="87" viewBox="0 0 87 87" fill="none" xmlns="http://www.w3.org/2000/svg">
<rect x="59.3623" y="40.9922" width="9.22519" height="28.2154" fill="#D9D9D9"/>
<rect x="59.3623" y="4.89844" width="9.22519" height="64.3109" fill="white"/>
<rect x="40.8799" y="32.2656" width="9.22519" height="36.944" fill="white"/>
<rect x="22.4268" y="50.7383" width="9.22519" height="18.4727" fill="white"/>
<path fill-rule="evenodd" clip-rule="evenodd" d="M29.0518 12.1963H23.6246C15.105 12.1963 8.19843 18.731 8.19843 26.792V64.7706C8.19843 72.8316 15.105 79.3663 23.6246 79.3663H63.7641C72.2837 79.3663 79.1902 72.8316 79.1902 64.7706V26.792C79.1902 26.5716 79.1851 26.3523 79.1749 26.1342H86.8931C86.8999 26.3527 86.9033 26.572 86.9033 26.792V64.7706C86.9033 76.8621 76.5435 86.6642 63.7641 86.6642H23.6246C10.8451 86.6642 0.485352 76.8621 0.485352 64.7706V26.792C0.485352 14.7005 10.8451 4.89844 23.6246 4.89844H29.0518V12.1963Z" fill="#317C6F"/>
<path d="M42.5166 8.74656L29.0404 16.1082L29.0404 1.38494L42.5166 8.74656Z" fill="#317C6F"/>
</svg>
