<svg width="169" height="40" viewBox="0 0 169 40" fill="none" xmlns="http://www.w3.org/2000/svg">
<g clip-path="url(#clip0_9405_362)">
<path d="M31.52 18.5766V1.65234H27.25V18.5766V31.812H31.52V18.5766Z" fill="white"/>
<path d="M22.9692 14.4805H18.6992V31.8101H22.9692V14.4805Z" fill="white"/>
<path d="M14.4302 23.1484H10.1602V31.8132H14.4302V23.1484Z" fill="white"/>
<path d="M39.96 11.6139H36.38C36.38 11.7152 36.38 11.8166 36.38 11.9179V29.734C36.3173 31.5977 35.533 33.3616 34.1967 34.6437C32.8605 35.9258 31.0798 36.6231 29.2401 36.5848H10.71C8.87026 36.6231 7.08955 35.9258 5.7533 34.6437C4.41704 33.3616 3.63271 31.5977 3.57001 29.734V11.9179C3.63528 10.0559 4.42074 8.29469 5.75671 7.01473C7.09269 5.73477 8.87193 5.03885 10.71 5.07728H13.22V6.91159L19.46 3.45579L13.22 0V1.65189H10.71C4.80002 1.65189 0 6.25286 0 11.9179V29.734C0 35.4092 4.80002 40 10.71 40H29.29C35.21 40 40 35.4092 40 29.734V11.6139H39.96Z" fill="white"/>
</g>
<path d="M54.208 31V8.6H68.096V11.448H57.6V18.008H66.656V20.856H57.6V31H54.208ZM72.8065 12.344C72.1878 12.344 71.6545 12.1307 71.2065 11.704C70.7798 11.256 70.5665 10.712 70.5665 10.072C70.5665 9.45333 70.7798 8.93067 71.2065 8.504C71.6545 8.07733 72.1878 7.864 72.8065 7.864C73.4465 7.864 73.9798 8.07733 74.4065 8.504C74.8545 8.93067 75.0785 9.45333 75.0785 10.072C75.0785 10.712 74.8545 11.256 74.4065 11.704C73.9798 12.1307 73.4465 12.344 72.8065 12.344ZM71.1105 31V15.128H74.5025V31H71.1105ZM78.3553 31V15.128H81.6193L81.6833 17.464C82.2166 16.5893 82.9526 15.9173 83.8913 15.448C84.8513 14.9787 85.8646 14.744 86.9313 14.744C88.7873 14.744 90.2913 15.3307 91.4433 16.504C92.5953 17.656 93.1713 19.384 93.1713 21.688V31H89.7793V22.104C89.7793 20.6747 89.4593 19.576 88.8193 18.808C88.1793 18.0187 87.2193 17.624 85.9392 17.624C84.6806 17.624 83.6673 18.0613 82.8993 18.936C82.1313 19.7893 81.7473 20.9733 81.7473 22.488V31H78.3553ZM103.263 31L95.3908 8.6H98.8468L105.279 27.8L108.191 19.192L104.479 8.6H107.903L110.431 16.472L112.959 8.6H116.415L112.671 19.192L115.583 27.8L122.015 8.6H125.471L117.599 31H113.631L110.431 21.816L107.231 31H103.263ZM129.338 12.344C128.719 12.344 128.186 12.1307 127.738 11.704C127.311 11.256 127.098 10.712 127.098 10.072C127.098 9.45333 127.311 8.93067 127.738 8.504C128.186 8.07733 128.719 7.864 129.338 7.864C129.978 7.864 130.511 8.07733 130.938 8.504C131.386 8.93067 131.61 9.45333 131.61 10.072C131.61 10.712 131.386 11.256 130.938 11.704C130.511 12.1307 129.978 12.344 129.338 12.344ZM127.642 31V15.128H131.034V31H127.642ZM142.279 31.384C140.721 31.384 139.345 31.032 138.151 30.328C136.956 29.624 136.017 28.6533 135.335 27.416C134.652 26.1573 134.311 24.7067 134.311 23.064C134.311 21.4427 134.641 20.0027 135.303 18.744C135.964 17.4853 136.892 16.504 138.087 15.8C139.281 15.096 140.679 14.744 142.279 14.744C144.177 14.744 145.777 15.2347 147.079 16.216C148.401 17.176 149.265 18.5307 149.671 20.28H146.087C145.895 19.4907 145.447 18.8507 144.743 18.36C144.06 17.8693 143.228 17.624 142.247 17.624C141.244 17.624 140.412 17.88 139.751 18.392C139.089 18.8827 138.588 19.544 138.247 20.376C137.927 21.1867 137.766 22.0827 137.766 23.064C137.766 24.088 137.937 25.016 138.279 25.848C138.641 26.6587 139.153 27.3093 139.815 27.8C140.497 28.2693 141.308 28.504 142.247 28.504C143.207 28.504 144.028 28.28 144.711 27.832C145.393 27.3627 145.852 26.6907 146.087 25.816H149.671C149.415 26.9467 148.945 27.928 148.263 28.76C147.58 29.592 146.727 30.2427 145.703 30.712C144.679 31.16 143.537 31.384 142.279 31.384ZM160.059 31.384C158.502 31.384 157.126 31.032 155.931 30.328C154.736 29.624 153.798 28.6427 153.115 27.384C152.454 26.1253 152.123 24.6853 152.123 23.064C152.123 21.3787 152.454 19.9173 153.115 18.68C153.776 17.4427 154.704 16.4827 155.899 15.8C157.115 15.096 158.512 14.744 160.091 14.744C161.627 14.744 162.971 15.0853 164.123 15.768C165.275 16.4293 166.171 17.336 166.811 18.488C167.472 19.64 167.803 20.952 167.803 22.424C167.803 22.7227 167.792 22.9787 167.771 23.192C167.771 23.4053 167.75 23.6613 167.707 23.96H155.515C155.579 24.856 155.803 25.656 156.187 26.36C156.571 27.0427 157.094 27.5867 157.755 27.992C158.416 28.376 159.174 28.568 160.027 28.568C160.944 28.568 161.723 28.3653 162.363 27.96C163.024 27.5333 163.515 26.936 163.835 26.168H167.355C167.078 27.128 166.608 28.0027 165.947 28.792C165.307 29.5813 164.496 30.2107 163.515 30.68C162.534 31.1493 161.382 31.384 160.059 31.384ZM155.547 21.56H164.347C164.304 20.3227 163.867 19.352 163.035 18.648C162.203 17.9227 161.19 17.56 159.995 17.56C158.928 17.56 157.958 17.8907 157.083 18.552C156.208 19.2133 155.696 20.216 155.547 21.56Z" fill="white"/>
<defs>
<clipPath id="clip0_9405_362">
<rect width="40" height="40" fill="white"/>
</clipPath>
</defs>
</svg>
