<svg width="28" height="28" viewBox="0 0 28 28" fill="none" xmlns="http://www.w3.org/2000/svg">
<g clip-path="url(#clip0_9360_18024)">
<path d="M22.0632 13.0032V1.15625H19.0742V13.0032V22.268H22.0632V13.0032Z" fill="white"/>
<path d="M16.0788 10.1367H13.0898V22.2675H16.0788V10.1367Z" fill="white"/>
<path d="M10.1023 16.2031H7.11328V22.2685H10.1023V16.2031Z" fill="white"/>
<path d="M27.972 8.12971H25.466C25.466 8.20065 25.466 8.27161 25.466 8.34255V20.8138C25.4221 22.1184 24.8731 23.3531 23.9377 24.2506C23.0023 25.1481 21.7559 25.6362 20.468 25.6093H7.49702C6.20918 25.6362 4.96269 25.1481 4.02731 24.2506C3.09193 23.3531 2.5429 22.1184 2.49901 20.8138V8.34255C2.54469 7.03915 3.09452 5.80628 4.0297 4.91031C4.96488 4.01434 6.21035 3.52719 7.49702 3.5541H9.25402V4.83811L13.622 2.41905L9.25402 0V1.15632H7.49702C3.36002 1.15632 0 4.377 0 8.34255V20.8138C0 24.7864 3.36002 28 7.49702 28H20.503C24.647 28 28 24.7864 28 20.8138V8.12971H27.972Z" fill="white"/>
</g>
<defs>
<clipPath id="clip0_9360_18024">
<rect width="28" height="28" fill="white"/>
</clipPath>
</defs>
</svg>
