<svg width="226" height="44" viewBox="0 0 226 44" fill="none" xmlns="http://www.w3.org/2000/svg">
<path d="M34.9199 35.4471C40.4897 35.4471 45.0048 30.9319 45.0048 25.3623C45.0048 19.7925 40.4897 15.2773 34.9199 15.2773V22.3367C36.5908 22.3367 37.9454 23.6913 37.9454 25.3623C37.9454 27.0331 36.5908 28.3877 34.9199 28.3877V35.4471Z" fill="#24283E"/>
<path d="M68.5362 18.6374C66.8129 18.0914 64.9777 17.7969 63.0736 17.7969C53.0945 17.7969 45.0049 25.8866 45.0049 35.8656C45.0049 36.8672 45.0864 37.8498 45.2431 38.8071H56.4698C56.069 37.9086 55.8462 36.9131 55.8462 35.8656C55.8462 31.874 59.082 28.6381 63.0736 28.6381C65.2552 28.6381 67.211 29.6047 68.5362 31.133V18.6374Z" fill="#24283E"/>
<path d="M36.6934 5.19141C37.5295 12.755 43.9419 18.638 51.7284 18.638C59.5147 18.638 65.9272 12.755 66.7633 5.19141H55.9451C55.2772 6.86568 53.6409 8.04878 51.7284 8.04878C49.8158 8.04878 48.1796 6.86568 47.5116 5.19141H36.6934Z" fill="#24283E"/>
<path d="M80.2354 12.0219H85.8666C87.3895 12.0219 88.5583 12.1414 89.3729 12.3805C90.1963 12.6195 90.8117 12.9648 91.2189 13.4164C91.6351 13.868 91.914 14.4169 92.0557 15.0633C92.2062 15.7008 92.2814 16.6924 92.2814 18.0383V19.9109C92.2814 21.2833 92.1398 22.2839 91.8564 22.9125C91.5731 23.5411 91.0507 24.0237 90.2893 24.3602C89.5367 24.6966 88.5494 24.8648 87.3275 24.8648H85.8268V33.5242H80.2354V12.0219ZM85.8268 15.7008V21.1727C85.9861 21.1815 86.1234 21.1859 86.2385 21.1859C86.752 21.1859 87.1062 21.062 87.301 20.8141C87.5046 20.5573 87.6064 20.0305 87.6064 19.2336V17.4672C87.6064 16.7323 87.4913 16.2542 87.2611 16.0328C87.0309 15.8115 86.5528 15.7008 85.8268 15.7008Z" fill="#24283E"/>
<path d="M102.853 12.0219L106.054 33.5242H100.33L100.051 29.6594H98.0455L97.7135 33.5242H91.9229L94.765 12.0219H102.853ZM99.8916 25.8477C99.6083 23.4128 99.3249 20.4068 99.0416 16.8297C98.4749 20.938 98.1208 23.944 97.9791 25.8477H99.8916Z" fill="#24283E"/>
<path d="M119.495 12.0219V33.5242H114.594L111.685 23.7492V33.5242H107.01V12.0219H111.685L114.82 21.7039V12.0219H119.495Z" fill="#24283E"/>
<path d="M131.408 12.0219L134.609 33.5242H128.885L128.606 29.6594H126.6L126.268 33.5242H120.478L123.32 12.0219H131.408ZM128.446 25.8477C128.163 23.4128 127.88 20.4068 127.596 16.8297C127.03 20.938 126.675 23.944 126.534 25.8477H128.446Z" fill="#24283E"/>
<path d="M135.565 12.0219H139.749C142.449 12.0219 144.273 12.1458 145.221 12.3938C146.177 12.6417 146.903 13.049 147.399 13.6156C147.894 14.1823 148.204 14.8154 148.328 15.5148C148.452 16.2055 148.514 17.569 148.514 19.6055V27.1359C148.514 29.0661 148.421 30.3589 148.235 31.0141C148.058 31.6604 147.744 32.1695 147.292 32.5414C146.841 32.9044 146.283 33.1612 145.619 33.3117C144.955 33.4534 143.954 33.5242 142.617 33.5242H135.565V12.0219ZM141.156 15.7008V29.8453C141.962 29.8453 142.458 29.6859 142.644 29.3672C142.83 29.0396 142.923 28.1586 142.923 26.7242V18.3703C142.923 17.3964 142.892 16.7721 142.83 16.4977C142.768 16.2232 142.626 16.024 142.405 15.9C142.184 15.7672 141.767 15.7008 141.156 15.7008Z" fill="#24283E"/>
<path d="M163.376 24.6125C163.376 26.7729 163.323 28.3047 163.217 29.2078C163.119 30.1021 162.8 30.9211 162.26 31.6648C161.729 32.4086 161.007 32.9797 160.096 33.3781C159.184 33.7766 158.121 33.9758 156.908 33.9758C155.757 33.9758 154.721 33.7898 153.8 33.418C152.888 33.0372 152.153 32.4706 151.596 31.718C151.038 30.9654 150.706 30.1464 150.599 29.2609C150.493 28.3755 150.44 26.826 150.44 24.6125V20.9336C150.44 18.7732 150.489 17.2458 150.586 16.3516C150.692 15.4484 151.011 14.625 151.542 13.8813C152.082 13.1375 152.809 12.5664 153.721 12.168C154.632 11.7695 155.695 11.5703 156.908 11.5703C158.059 11.5703 159.091 11.7607 160.003 12.1414C160.923 12.5133 161.663 13.0755 162.221 13.8281C162.778 14.5807 163.11 15.3997 163.217 16.2852C163.323 17.1706 163.376 18.7201 163.376 20.9336V24.6125ZM157.785 17.5469C157.785 16.5464 157.727 15.9089 157.612 15.6344C157.506 15.351 157.28 15.2094 156.935 15.2094C156.642 15.2094 156.417 15.3245 156.257 15.5547C156.107 15.776 156.031 16.4401 156.031 17.5469V27.5875C156.031 28.8359 156.08 29.6063 156.178 29.8984C156.284 30.1906 156.523 30.3367 156.895 30.3367C157.275 30.3367 157.519 30.1685 157.625 29.832C157.731 29.4956 157.785 28.6943 157.785 27.4281V17.5469Z" fill="#24283E"/>
<path d="M176.803 12.0219L174.851 21.5313L177.799 33.5242H172.62C172 31.3815 171.433 28.774 170.92 25.7016C170.778 27.0563 170.583 28.4951 170.335 30.018L169.804 33.5242H164.359L166.378 21.5313L164.359 12.0219H169.764C169.862 12.6151 170.056 13.6023 170.349 14.9836C170.579 16.0372 170.769 17.0023 170.92 17.8789L172.115 12.0219H176.803Z" fill="#24283E"/>
<path d="M191.081 12.0219V33.5242H186.18L183.271 23.7492V33.5242H178.596V12.0219H183.271L186.406 21.7039V12.0219H191.081Z" fill="#24283E"/>
</svg>
