<svg width="226" height="44" viewBox="0 0 226 44" fill="none" xmlns="http://www.w3.org/2000/svg">
<path fill-rule="evenodd" clip-rule="evenodd" d="M42.9559 3.95765C41.3821 5.05805 39.9591 6.35908 38.7237 7.82364C43.7719 7.35496 50.1855 8.12025 57.6317 11.8434C65.5831 15.819 71.986 15.9534 76.4421 15.0939C76.0378 13.8697 75.5287 12.6931 74.9258 11.5746C69.8247 12.1126 63.2852 11.4005 55.664 7.58998C50.8244 5.1702 46.5584 4.17341 42.9559 3.95765ZM71.946 7.33331C67.9177 2.8325 62.0636 0 55.5478 0C53.6344 0 51.7778 0.244318 50.0079 0.703428C52.405 1.35749 54.9515 2.31439 57.6317 3.65449C63.2115 6.44438 68.0289 7.34268 71.946 7.33331ZM77.3948 19.3909C72.0114 20.4539 64.5775 20.2356 55.664 15.7788C47.3308 11.6122 40.6983 11.6647 36.2251 12.6588C35.9943 12.71 35.7688 12.7639 35.5488 12.82C34.9631 14.0937 34.4956 15.4331 34.1602 16.8239C34.5185 16.7282 34.8887 16.6373 35.2706 16.5523C40.6974 15.3464 48.3649 15.3988 57.6317 20.0322C65.9649 24.1988 72.5974 24.1463 77.0707 23.1522C77.2239 23.1182 77.3749 23.083 77.5234 23.0467C77.5397 22.6999 77.5478 22.3509 77.5478 22C77.5478 21.1172 77.4959 20.2466 77.3948 19.3909ZM76.8051 27.6895C71.474 28.6216 64.2565 28.2638 55.664 23.9677C47.3308 19.8011 40.6983 19.8536 36.2251 20.8476C35.2322 21.0682 34.339 21.3369 33.5511 21.6206C33.5489 21.7468 33.5479 21.8733 33.5479 22C33.5479 34.1503 43.3976 44 55.5478 44C65.7306 44 74.2977 37.082 76.8051 27.6895Z" fill="#24283E"/>
<path d="M100.657 32.993C99.4077 32.993 98.2461 32.7642 97.1725 32.3066C96.1165 31.849 95.2013 31.2154 94.4269 30.4058C93.6701 29.5786 93.1157 28.6194 92.7637 27.5282L95.7469 26.2346C96.2221 27.361 96.9085 28.2498 97.8061 28.901C98.7037 29.5346 99.7157 29.8514 100.842 29.8514C101.476 29.8514 102.021 29.7546 102.479 29.561C102.954 29.3498 103.315 29.0682 103.561 28.7162C103.825 28.3642 103.957 27.9418 103.957 27.449C103.957 26.8682 103.781 26.393 103.429 26.0234C103.095 25.6362 102.584 25.337 101.898 25.1258L98.1229 23.9114C96.5917 23.4362 95.4389 22.7234 94.6645 21.773C93.8901 20.8226 93.5029 19.705 93.5029 18.4202C93.5029 17.2938 93.7757 16.2994 94.3213 15.437C94.8845 14.5746 95.6589 13.9058 96.6445 13.4306C97.6477 12.9378 98.7917 12.6914 100.076 12.6914C101.256 12.6914 102.338 12.9026 103.324 13.325C104.309 13.7298 105.154 14.3018 105.858 15.041C106.58 15.7626 107.116 16.6162 107.468 17.6018L104.512 18.9218C104.124 17.9362 103.544 17.1794 102.769 16.6514C101.995 16.1058 101.097 15.833 100.076 15.833C99.4781 15.833 98.9501 15.9386 98.4925 16.1498C98.0349 16.3434 97.6741 16.625 97.4101 16.9946C97.1637 17.3466 97.0405 17.769 97.0405 18.2618C97.0405 18.8074 97.2165 19.2914 97.5685 19.7138C97.9205 20.1186 98.4573 20.4354 99.1789 20.6642L102.796 21.7994C104.362 22.3098 105.532 23.0138 106.307 23.9114C107.099 24.809 107.495 25.9178 107.495 27.2378C107.495 28.3642 107.204 29.3586 106.624 30.221C106.043 31.0834 105.242 31.761 104.221 32.2538C103.2 32.7466 102.012 32.993 100.657 32.993Z" fill="#24283E"/>
<path d="M110.437 32.6762V12.6914H113.896V21.1394L113.421 20.6378C113.755 19.7754 114.301 19.1242 115.057 18.6842C115.832 18.2266 116.729 17.9978 117.75 17.9978C118.806 17.9978 119.739 18.2266 120.549 18.6842C121.376 19.1418 122.018 19.7842 122.476 20.6114C122.933 21.421 123.162 22.3626 123.162 23.4362V32.6762H119.704V24.2546C119.704 23.621 119.581 23.0754 119.334 22.6178C119.088 22.1602 118.745 21.8082 118.305 21.5618C117.882 21.2978 117.381 21.1658 116.8 21.1658C116.237 21.1658 115.735 21.2978 115.295 21.5618C114.855 21.8082 114.512 22.1602 114.265 22.6178C114.019 23.0754 113.896 23.621 113.896 24.2546V32.6762H110.437Z" fill="#24283E"/>
<path d="M130.443 32.993C129.439 32.993 128.568 32.8258 127.829 32.4914C127.09 32.157 126.518 31.6818 126.113 31.0658C125.708 30.4322 125.506 29.7018 125.506 28.8746C125.506 28.0826 125.682 27.3786 126.034 26.7626C126.386 26.129 126.931 25.601 127.671 25.1786C128.41 24.7562 129.343 24.457 130.469 24.281L135.168 23.5154V26.1554L131.129 26.8418C130.443 26.965 129.932 27.185 129.598 27.5018C129.263 27.8186 129.096 28.2322 129.096 28.7426C129.096 29.2354 129.281 29.6314 129.651 29.9306C130.038 30.2122 130.513 30.353 131.076 30.353C131.798 30.353 132.431 30.2034 132.977 29.9042C133.54 29.5874 133.971 29.1562 134.271 28.6106C134.587 28.065 134.746 27.4666 134.746 26.8154V23.1194C134.746 22.5034 134.499 21.993 134.007 21.5882C133.531 21.1658 132.898 20.9546 132.106 20.9546C131.367 20.9546 130.707 21.157 130.126 21.5618C129.563 21.949 129.149 22.4682 128.885 23.1194L126.06 21.7466C126.342 20.9898 126.782 20.3386 127.38 19.793C127.996 19.2298 128.718 18.7898 129.545 18.473C130.372 18.1562 131.27 17.9978 132.238 17.9978C133.417 17.9978 134.455 18.2178 135.353 18.6578C136.251 19.0802 136.946 19.6786 137.439 20.453C137.949 21.2098 138.204 22.0986 138.204 23.1194V32.6762H134.931V30.221L135.67 30.1682C135.3 30.7842 134.86 31.3034 134.35 31.7258C133.839 32.1306 133.259 32.4474 132.607 32.6762C131.956 32.8874 131.235 32.993 130.443 32.993Z" fill="#24283E"/>
<path d="M141.401 32.6762V18.3146H144.648V21.1394L144.384 20.6378C144.718 19.7754 145.264 19.1242 146.021 18.6842C146.795 18.2266 147.693 17.9978 148.714 17.9978C149.77 17.9978 150.702 18.2266 151.512 18.6842C152.339 19.1418 152.982 19.7842 153.439 20.6114C153.897 21.421 154.126 22.3626 154.126 23.4362V32.6762H150.667V24.2546C150.667 23.621 150.544 23.0754 150.298 22.6178C150.051 22.1602 149.708 21.8082 149.268 21.5618C148.846 21.2978 148.344 21.1658 147.763 21.1658C147.2 21.1658 146.698 21.2978 146.258 21.5618C145.818 21.8082 145.475 22.1602 145.229 22.6178C144.982 23.0754 144.859 23.621 144.859 24.2546V32.6762H141.401Z" fill="#24283E"/>
<path d="M164.02 38.4842C162.946 38.4842 161.952 38.3082 161.036 37.9562C160.121 37.6042 159.329 37.1114 158.66 36.4778C158.009 35.8618 157.534 35.1314 157.235 34.2866L160.456 33.0722C160.667 33.741 161.08 34.2778 161.696 34.6826C162.33 35.105 163.104 35.3162 164.02 35.3162C164.724 35.3162 165.34 35.1842 165.868 34.9202C166.413 34.6562 166.836 34.269 167.135 33.7586C167.434 33.2658 167.584 32.6674 167.584 31.9634V28.6898L168.244 29.4818C167.751 30.3442 167.091 30.9954 166.264 31.4354C165.436 31.8754 164.495 32.0954 163.439 32.0954C162.101 32.0954 160.904 31.7874 159.848 31.1714C158.792 30.5554 157.965 29.7106 157.367 28.637C156.768 27.5634 156.469 26.3578 156.469 25.0202C156.469 23.665 156.768 22.4594 157.367 21.4034C157.965 20.3474 158.784 19.5202 159.822 18.9218C160.86 18.3058 162.04 17.9978 163.36 17.9978C164.433 17.9978 165.375 18.2266 166.184 18.6842C167.012 19.1242 167.698 19.7666 168.244 20.6114L167.768 21.4826V18.3146H171.042V31.9634C171.042 33.213 170.734 34.3306 170.118 35.3162C169.52 36.3018 168.692 37.0762 167.636 37.6394C166.598 38.2026 165.392 38.4842 164.02 38.4842ZM163.861 28.901C164.6 28.901 165.243 28.7426 165.788 28.4258C166.352 28.0914 166.792 27.6338 167.108 27.053C167.425 26.4722 167.584 25.8034 167.584 25.0466C167.584 24.3074 167.416 23.6474 167.082 23.0666C166.765 22.4682 166.325 22.0018 165.762 21.6674C165.216 21.333 164.583 21.1658 163.861 21.1658C163.14 21.1658 162.488 21.333 161.908 21.6674C161.327 22.0018 160.869 22.4682 160.535 23.0666C160.218 23.6474 160.06 24.3074 160.06 25.0466C160.06 25.7858 160.218 26.4458 160.535 27.0266C160.869 27.6074 161.318 28.065 161.881 28.3994C162.462 28.7338 163.122 28.901 163.861 28.901Z" fill="#24283E"/>
<path d="M172.978 32.6762L177.994 25.469L172.952 18.3146H177.017L180.951 24.1226H179.129L183.063 18.3146H187.102L182.086 25.469L187.076 32.6762H183.037L179.156 26.8946H180.925L177.044 32.6762H172.978Z" fill="#24283E"/>
<path d="M188.993 32.6762V18.3146H192.451V32.6762H188.993ZM188.993 16.7042V13.0082H192.451V16.7042H188.993Z" fill="#24283E"/>
</svg>
