<svg width="226" height="44" viewBox="0 0 226 44" fill="none" xmlns="http://www.w3.org/2000/svg">
<g clip-path="url(#clip0_9360_14770)">
<path d="M64.8759 0.941406C53.4524 0.941406 44.1914 10.3205 44.1914 21.89C44.1914 33.4599 53.4524 42.8383 64.8759 42.8383C76.3006 42.8383 85.5606 33.4599 85.5606 21.89C85.5606 10.3213 76.3006 0.942407 64.8756 0.942407L64.8759 0.941406ZM74.3616 31.1552C74.2734 31.3017 74.1574 31.4291 74.0205 31.5302C73.8835 31.6312 73.7282 31.704 73.5635 31.7442C73.3988 31.7843 73.2279 31.7913 73.0605 31.7645C72.8931 31.7377 72.7326 31.6777 72.5882 31.588C67.7317 28.5836 61.6179 27.9032 54.4179 29.5693C54.0845 29.646 53.7347 29.5856 53.4452 29.4013C53.1558 29.2169 52.9505 28.9237 52.8744 28.5861C52.8365 28.419 52.8316 28.2459 52.8598 28.0768C52.8881 27.9077 52.949 27.7459 53.039 27.6007C53.1291 27.4554 53.2466 27.3296 53.3847 27.2305C53.5229 27.1313 53.679 27.0607 53.8441 27.0227C61.7234 25.1995 68.482 25.9845 73.9343 29.3591C74.5419 29.7369 74.7346 30.5399 74.3616 31.1552ZM76.8934 25.4512C76.4265 26.2197 75.4336 26.4623 74.6753 25.9895C69.1154 22.5284 60.6401 21.526 54.0637 23.5478C53.2108 23.8087 52.31 23.3219 52.0512 22.4596C51.9277 22.045 51.9715 21.5978 52.1731 21.2159C52.3747 20.834 52.7176 20.5487 53.1266 20.4226C60.6386 18.1141 69.9774 19.2323 76.3623 23.206C77.1206 23.6788 77.3602 24.6845 76.8934 25.4514V25.4512ZM77.1107 19.5115C70.4442 15.5012 59.4453 15.1325 53.0804 17.089C52.0583 17.4029 50.9775 16.8186 50.6677 15.7834C50.5188 15.2861 50.571 14.7492 50.8128 14.2908C51.0546 13.8325 51.4663 13.4902 51.9573 13.3391C59.2638 11.0927 71.41 11.5268 79.0852 16.1414C79.304 16.2724 79.495 16.4459 79.6475 16.6519C79.7999 16.8578 79.9108 17.0922 79.9736 17.3416C80.0365 17.591 80.0502 17.8506 80.0139 18.1053C79.9775 18.3601 79.892 18.6051 79.762 18.8263C79.2186 19.7574 78.0281 20.0643 77.1117 19.5115H77.1107ZM100.467 20.28C96.8954 19.4174 96.2606 18.812 96.2606 17.54C96.2606 16.3383 97.377 15.5295 99.0393 15.5295C100.65 15.5295 102.245 16.1436 103.92 17.4079C103.969 17.4462 104.034 17.4615 104.095 17.4514C104.126 17.4469 104.156 17.436 104.183 17.4194C104.21 17.4028 104.233 17.3809 104.251 17.3549L105.995 14.8653C106.029 14.816 106.044 14.7552 106.036 14.6953C106.027 14.6355 105.997 14.581 105.95 14.5431C103.957 12.9239 101.714 12.1366 99.0912 12.1366C95.2355 12.1366 92.5408 14.4803 92.5408 17.8337C92.5408 21.4297 94.865 22.703 98.8812 23.6858C102.297 24.4831 102.875 25.151 102.875 26.3447C102.875 27.6681 101.709 28.4911 99.8322 28.4911C97.7475 28.4911 96.0457 27.7781 94.1438 26.1121C94.0964 26.0715 94.0354 26.0509 93.9734 26.0546C93.9091 26.0596 93.8523 26.0896 93.8128 26.1371L91.8566 28.4936C91.7751 28.5936 91.7849 28.7387 91.8788 28.8238C94.0919 30.825 96.8139 31.8807 99.7531 31.8807C103.908 31.8807 106.593 29.5818 106.593 26.022C106.6 23.0184 104.824 21.3549 100.474 20.2832L100.467 20.28ZM115.993 16.7127C114.193 16.7127 112.716 17.4312 111.495 18.9034V17.2463C111.496 17.1837 111.471 17.1235 111.428 17.079C111.384 17.0344 111.325 17.0093 111.263 17.0089H108.065C107.936 17.0089 107.832 17.1155 107.832 17.2463V35.6581C107.832 35.7881 107.936 35.8957 108.065 35.8957H111.263C111.392 35.8957 111.495 35.7881 111.495 35.6581V29.8469C112.716 31.2303 114.193 31.9082 115.993 31.9082C119.34 31.9082 122.729 29.2991 122.729 24.3112C122.734 19.3224 119.345 16.7125 115.996 16.7125L115.993 16.7127ZM119.009 24.3112C119.009 26.8501 117.465 28.6237 115.252 28.6237C113.066 28.6237 111.416 26.77 111.416 24.3112C111.416 21.8522 113.066 19.999 115.252 19.999C117.428 19.9988 119.009 21.8119 119.009 24.311V24.3112ZM131.411 16.7127C127.101 16.7127 123.724 20.0738 123.724 24.3655C123.724 28.6112 127.079 31.9357 131.359 31.9357C135.684 31.9357 139.07 28.5861 139.07 24.3112C139.07 20.0508 135.706 16.7132 131.411 16.7132V16.7127ZM131.411 28.6487C129.119 28.6487 127.39 26.7825 127.39 24.31C127.39 21.8262 129.06 20.0238 131.359 20.0238C133.666 20.0238 135.405 21.8892 135.405 24.3643C135.405 26.8476 133.725 28.6487 131.411 28.6487ZM148.274 17.0089H144.754V13.3652C144.754 13.3341 144.748 13.3034 144.737 13.2747C144.725 13.246 144.708 13.2199 144.686 13.1979C144.665 13.1759 144.639 13.1584 144.611 13.1464C144.583 13.1344 144.552 13.1281 144.522 13.128H141.323C141.195 13.128 141.088 13.2346 141.088 13.3652V17.0089H139.552C139.424 17.0089 139.32 17.1155 139.32 17.2463V20.0298C139.32 20.1604 139.424 20.2672 139.552 20.2672H141.088V27.4704C141.088 30.3798 142.519 31.8557 145.342 31.8557C146.488 31.8557 147.439 31.6155 148.335 31.1002C148.41 31.0602 148.454 30.9801 148.454 30.8951V28.2434C148.454 28.1634 148.412 28.0858 148.343 28.0433C148.309 28.0215 148.27 28.0091 148.231 28.0074C148.191 28.0056 148.151 28.0145 148.116 28.0333C147.501 28.346 146.905 28.4911 146.238 28.4911C145.213 28.4911 144.754 28.0183 144.754 26.9626V20.2685H148.274C148.402 20.2685 148.506 20.1619 148.506 20.0311V17.2478C148.507 17.2168 148.502 17.1858 148.491 17.1569C148.479 17.1279 148.463 17.1015 148.441 17.0793C148.42 17.0571 148.394 17.0396 148.366 17.0277C148.337 17.0159 148.307 17.01 148.276 17.0104L148.274 17.0089ZM160.535 17.0232V16.5757C160.535 15.2591 161.034 14.672 162.15 14.672C162.817 14.672 163.353 14.8061 163.953 15.0087C164.027 15.0322 164.104 15.0204 164.163 14.9757C164.193 14.9537 164.218 14.9247 164.234 14.8912C164.251 14.8577 164.26 14.8206 164.259 14.783V12.0538C164.26 12.0029 164.244 11.9531 164.214 11.9121C164.184 11.871 164.142 11.841 164.094 11.8264C163.462 11.6356 162.651 11.4397 161.436 11.4397C158.485 11.4397 156.921 13.1243 156.921 16.3095V16.9949H155.385C155.256 16.9949 155.15 17.1015 155.15 17.2321V20.0298C155.15 20.1604 155.256 20.2672 155.385 20.2672H156.921V31.3754C156.921 31.508 157.027 31.613 157.156 31.613H160.352C160.483 31.613 160.587 31.508 160.587 31.3754V20.268H163.573L168.147 31.3754C167.629 32.5411 167.117 32.7738 166.421 32.7738C165.858 32.7738 165.262 32.6036 164.657 32.2659C164.6 32.2366 164.534 32.2304 164.472 32.2484C164.41 32.2709 164.358 32.316 164.334 32.376L163.249 34.785C163.197 34.9001 163.242 35.0327 163.351 35.0927C164.482 35.7131 165.502 35.9782 166.764 35.9782C169.125 35.9782 170.432 34.8626 171.581 31.8657L177.128 17.3474C177.143 17.3115 177.148 17.2725 177.144 17.234C177.139 17.1955 177.125 17.1587 177.103 17.127C177.083 17.0953 177.054 17.0693 177.021 17.0513C176.988 17.0333 176.951 17.0239 176.913 17.0239H173.584C173.482 17.0239 173.393 17.0882 173.361 17.183L169.95 27.0477L166.216 17.1765C166.199 17.1318 166.169 17.0932 166.13 17.066C166.092 17.0387 166.046 17.0241 165.998 17.0239H160.535V17.0232ZM153.426 17.0089H150.227C150.099 17.0089 149.993 17.1155 149.993 17.2463V31.3754C149.993 31.508 150.099 31.613 150.227 31.613H153.426C153.555 31.613 153.661 31.508 153.661 31.3754V17.2473C153.661 17.2161 153.655 17.1852 153.643 17.1563C153.631 17.1275 153.614 17.1013 153.592 17.0792C153.57 17.0572 153.544 17.0397 153.516 17.0278C153.487 17.0159 153.457 17.0098 153.426 17.0099V17.0089ZM151.845 10.5752C150.578 10.5752 149.551 11.6138 149.551 12.8969C149.551 13.202 149.61 13.5042 149.725 13.7862C149.841 14.0681 150.01 14.3243 150.223 14.5401C150.436 14.7558 150.689 14.927 150.967 15.0437C151.246 15.1605 151.544 15.2206 151.845 15.2206C153.112 15.2206 154.137 14.1807 154.137 12.8969C154.137 11.6141 153.11 10.5752 151.845 10.5752ZM179.86 21.552C178.595 21.552 177.61 20.5226 177.61 19.2726C177.61 18.0226 178.608 16.9814 179.872 16.9814C181.137 16.9814 182.122 18.0105 182.122 19.2596C182.122 20.5096 181.125 21.552 179.86 21.552ZM179.872 17.208C178.719 17.208 177.847 18.1361 177.847 19.2726C177.847 20.4085 178.714 21.3241 179.86 21.3241C181.013 21.3241 181.885 20.3968 181.885 19.2596C181.885 18.1236 181.018 17.208 179.872 17.208ZM180.371 19.494L181.008 20.3965H180.47L179.897 19.5685H179.405V20.3965H178.956V18.004H180.008C180.559 18.004 180.92 18.2885 180.92 18.7673C180.922 19.1595 180.697 19.3992 180.374 19.494H180.371ZM179.991 18.4145H179.405V19.1713H179.991C180.282 19.1713 180.458 19.0264 180.458 18.7925C180.458 18.5464 180.282 18.4145 179.991 18.4145Z" fill="#24283E"/>
</g>
<defs>
<clipPath id="clip0_9360_14770">
<rect width="143" height="42" fill="white" transform="translate(41.5 1)"/>
</clipPath>
</defs>
</svg>
