<svg width="226" height="44" viewBox="0 0 226 44" fill="none" xmlns="http://www.w3.org/2000/svg">
<path d="M101.555 29.2783L102.873 26.1346C104.298 27.2261 106.191 27.7938 108.063 27.7938C109.446 27.7938 110.318 27.248 110.318 26.4184C110.297 24.1042 102.044 25.9162 101.98 20.109C101.959 17.1617 104.511 14.8912 108.127 14.8912C110.275 14.8912 112.424 15.437 113.955 16.6814L112.721 19.8907C111.318 18.9738 109.573 18.3188 107.914 18.3188C106.787 18.3188 106.043 18.8646 106.043 19.5632C106.064 21.8337 114.38 20.5893 114.465 26.1346C114.465 29.1473 111.977 31.265 108.404 31.265C105.787 31.265 103.384 30.6319 101.555 29.2783ZM152.155 24.9993C151.496 26.1782 150.262 26.986 148.837 26.986C146.732 26.986 145.03 25.2395 145.03 23.0781C145.03 20.9168 146.732 19.1702 148.837 19.1702C150.262 19.1702 151.496 19.978 152.155 21.1569L155.793 19.0829C154.431 16.5941 151.815 14.8912 148.837 14.8912C144.435 14.8912 140.861 18.559 140.861 23.0781C140.861 27.5973 144.435 31.265 148.837 31.265C151.836 31.265 154.431 29.584 155.793 27.0733L152.155 24.9993ZM116.295 8.10156H120.846V30.9594H116.295V8.10156ZM157.579 8.10156V30.9594H162.131V24.1042L167.533 30.9594H173.361L166.491 22.8161L172.851 15.2187H167.278L162.131 21.5281V8.10156H157.579ZM134.374 25.043C133.715 26.1564 132.353 26.986 130.822 26.986C128.716 26.986 127.015 25.2395 127.015 23.0781C127.015 20.9168 128.716 19.1702 130.822 19.1702C132.353 19.1702 133.715 20.0435 134.374 21.1788V25.043ZM134.374 15.2187V17.0744C133.629 15.7863 131.779 14.8912 129.843 14.8912C125.845 14.8912 122.697 18.5153 122.697 23.0563C122.697 27.5973 125.845 31.265 129.843 31.265C131.779 31.265 133.629 30.3699 134.374 29.0818V30.9375H138.926V15.2187H134.374Z" fill="#24283E"/>
<path d="M60.4571 26.8989C60.4571 29.053 58.7161 30.794 56.562 30.794C54.408 30.794 52.667 29.053 52.667 26.8989C52.667 24.7449 54.408 23.0039 56.562 23.0039H60.4571V26.8989ZM62.4046 26.8989C62.4046 24.7449 64.1455 23.0039 66.2996 23.0039C68.4537 23.0039 70.1947 24.7449 70.1947 26.8989V36.6365C70.1947 38.7906 68.4537 40.5316 66.2996 40.5316C64.1455 40.5316 62.4046 38.7906 62.4046 36.6365V26.8989Z" fill="#24283E"/>
<path d="M66.2998 11.2588C64.1458 11.2588 62.4048 9.51786 62.4048 7.36379C62.4048 5.20971 64.1458 3.46875 66.2998 3.46875C68.4539 3.46875 70.1949 5.20971 70.1949 7.36379V11.2588H66.2998ZM66.2998 13.2358C68.4539 13.2358 70.1949 14.9768 70.1949 17.1309C70.1949 19.285 68.4539 21.0259 66.2998 21.0259H56.5327C54.3787 21.0259 52.6377 19.285 52.6377 17.1309C52.6377 14.9768 54.3787 13.2358 56.5327 13.2358H66.2998Z" fill="#24283E"/>
<path d="M81.9095 17.1309C81.9095 14.9768 83.6504 13.2358 85.8045 13.2358C87.9586 13.2358 89.6995 14.9768 89.6995 17.1309C89.6995 19.285 87.9586 21.0259 85.8045 21.0259H81.9095V17.1309ZM79.9619 17.1309C79.9619 19.285 78.221 21.0259 76.0669 21.0259C73.9128 21.0259 72.1719 19.285 72.1719 17.1309V7.36379C72.1719 5.20971 73.9128 3.46875 76.0669 3.46875C78.221 3.46875 79.9619 5.20971 79.9619 7.36379V17.1309Z" fill="#24283E"/>
<path d="M76.0669 32.7415C78.221 32.7415 79.9619 34.4825 79.9619 36.6365C79.9619 38.7906 78.221 40.5316 76.0669 40.5316C73.9128 40.5316 72.1719 38.7906 72.1719 36.6365V32.7415H76.0669ZM76.0669 30.794C73.9128 30.794 72.1719 29.053 72.1719 26.8989C72.1719 24.7449 73.9128 23.0039 76.0669 23.0039H85.834C87.9881 23.0039 89.729 24.7449 89.729 26.8989C89.729 29.053 87.9881 30.794 85.834 30.794H76.0669Z" fill="#24283E"/>
</svg>
