<svg width="226" height="44" viewBox="0 0 226 44" fill="none" xmlns="http://www.w3.org/2000/svg">
<path d="M58.4525 10.6575V6H43.7676V38H58.4525V33.3425C55.4443 33.3425 52.5592 32.1474 50.4322 30.0203C48.305 27.8932 47.11 25.0082 47.11 22C47.11 18.9918 48.305 16.1067 50.4322 13.9797C52.5592 11.8525 55.4443 10.6575 58.4525 10.6575Z" fill="#24283E"/>
<path d="M58.4502 10.6562V33.3412C61.4584 33.3412 64.3435 32.1461 66.4706 30.019C68.5977 27.8919 69.7927 25.0069 69.7927 21.9987C69.7927 18.9905 68.5977 16.1055 66.4706 13.9784C64.3435 11.8513 61.4584 10.6562 58.4502 10.6562Z" fill="#24283E"/>
<path d="M179.821 17.3297C181.153 17.3297 182.232 16.2503 182.232 14.9188C182.232 13.5873 181.153 12.5078 179.821 12.5078C178.49 12.5078 177.41 13.5873 177.41 14.9188C177.41 16.2503 178.49 17.3297 179.821 17.3297Z" fill="#24283E"/>
<path d="M85.0006 26.8611L89.4056 12.0666H93.695L87.1838 30.7652H84.3585L85.0006 26.8611ZM80.9424 12.0666L85.3345 26.8611L86.0023 30.7652H83.1513L76.6787 12.0666H80.9424Z" fill="#24283E"/>
<path d="M102.12 27.6317V21.4416C102.12 20.9964 102.047 20.6154 101.901 20.2986C101.756 19.9733 101.529 19.7207 101.221 19.5409C100.921 19.3611 100.531 19.2712 100.052 19.2712C99.641 19.2712 99.2857 19.344 98.9861 19.4896C98.6864 19.6265 98.4552 19.8277 98.2926 20.0932C98.1299 20.35 98.0486 20.6539 98.0486 21.005H94.3499C94.3499 20.4142 94.4869 19.8534 94.7609 19.3226C95.0349 18.7918 95.433 18.3252 95.9552 17.9228C96.4775 17.5118 97.0982 17.1908 97.8174 16.9596C98.5451 16.7284 99.3585 16.6129 100.257 16.6129C101.336 16.6129 102.295 16.7926 103.134 17.1522C103.973 17.5118 104.632 18.0512 105.112 18.7704C105.6 19.4896 105.844 20.3885 105.844 21.4673V27.4134C105.844 28.1753 105.891 28.8003 105.985 29.2884C106.079 29.7678 106.216 30.1873 106.396 30.5469V30.7652H102.659C102.479 30.3885 102.342 29.9176 102.248 29.3526C102.162 28.7789 102.12 28.2053 102.12 27.6317ZM102.608 22.3021L102.633 24.3954H100.566C100.078 24.3954 99.6539 24.451 99.2943 24.5623C98.9347 24.6736 98.6393 24.832 98.4082 25.0375C98.177 25.2344 98.0058 25.4656 97.8945 25.731C97.7917 25.9964 97.7404 26.2875 97.7404 26.6043C97.7404 26.9211 97.8131 27.2079 97.9587 27.4647C98.1042 27.713 98.314 27.9099 98.588 28.0555C98.8619 28.1925 99.183 28.261 99.5511 28.261C100.108 28.261 100.591 28.1497 101.002 27.9271C101.413 27.7045 101.73 27.4305 101.953 27.1051C102.184 26.7798 102.304 26.4716 102.312 26.1805L103.288 27.7473C103.151 28.0983 102.963 28.4622 102.723 28.8389C102.492 29.2156 102.197 29.5709 101.837 29.9048C101.478 30.2301 101.045 30.4998 100.54 30.7139C100.035 30.9194 99.4356 31.0221 98.7421 31.0221C97.8602 31.0221 97.0597 30.8466 96.3405 30.4956C95.6299 30.136 95.0648 29.6437 94.6453 29.0187C94.2344 28.3851 94.0289 27.6659 94.0289 26.8611C94.0289 26.1334 94.1659 25.487 94.4398 24.9219C94.7138 24.3569 95.1162 23.8817 95.647 23.4964C96.1864 23.1026 96.8585 22.8072 97.6633 22.6103C98.4681 22.4048 99.4013 22.3021 100.463 22.3021H102.608Z" fill="#24283E"/>
<path d="M112.317 19.8363V30.7652H108.618V16.8697H112.085L112.317 19.8363ZM111.777 23.3295H110.775C110.775 22.3021 110.908 21.3774 111.174 20.5555C111.439 19.725 111.811 19.0187 112.291 18.4365C112.77 17.8457 113.34 17.3962 113.999 17.088C114.667 16.7712 115.412 16.6129 116.233 16.6129C116.884 16.6129 117.479 16.707 118.019 16.8954C118.558 17.0837 119.02 17.3834 119.406 17.7944C119.799 18.2053 120.099 18.749 120.305 19.4253C120.519 20.1017 120.626 20.9279 120.626 21.9039V30.7652H116.901V21.8911C116.901 21.2747 116.816 20.7952 116.644 20.4527C116.473 20.1103 116.221 19.8706 115.887 19.7336C115.561 19.588 115.159 19.5152 114.68 19.5152C114.183 19.5152 113.751 19.6137 113.382 19.8106C113.023 20.0075 112.723 20.2815 112.483 20.6325C112.252 20.975 112.077 21.3774 111.957 21.8397C111.837 22.3021 111.777 22.7986 111.777 23.3295Z" fill="#24283E"/>
<path d="M128.151 30.7652H124.427V15.6368C124.427 14.5837 124.632 13.6976 125.043 12.9784C125.463 12.2507 126.049 11.7028 126.803 11.3346C127.565 10.9579 128.468 10.7695 129.513 10.7695C129.855 10.7695 130.185 10.7952 130.501 10.8466C130.818 10.8894 131.126 10.945 131.426 11.0135L131.388 13.8004C131.225 13.7575 131.054 13.7276 130.874 13.7105C130.694 13.6933 130.484 13.6848 130.245 13.6848C129.799 13.6848 129.418 13.7618 129.102 13.9159C128.793 14.0615 128.558 14.2798 128.395 14.5709C128.233 14.862 128.151 15.2173 128.151 15.6368V30.7652ZM130.925 16.8697V19.4896H122.359V16.8697H130.925Z" fill="#24283E"/>
<path d="M140.364 27.6317V21.4416C140.364 20.9964 140.292 20.6154 140.146 20.2986C140.001 19.9733 139.774 19.7207 139.466 19.5409C139.166 19.3611 138.776 19.2712 138.297 19.2712C137.886 19.2712 137.531 19.344 137.231 19.4896C136.931 19.6265 136.7 19.8277 136.537 20.0932C136.375 20.35 136.293 20.6539 136.293 21.005H132.595C132.595 20.4142 132.732 19.8534 133.006 19.3226C133.28 18.7918 133.678 18.3252 134.2 17.9228C134.722 17.5118 135.343 17.1908 136.062 16.9596C136.79 16.7284 137.603 16.6129 138.502 16.6129C139.581 16.6129 140.54 16.7926 141.379 17.1522C142.218 17.5118 142.877 18.0512 143.357 18.7704C143.845 19.4896 144.089 20.3885 144.089 21.4673V27.4134C144.089 28.1753 144.136 28.8003 144.23 29.2884C144.324 29.7678 144.461 30.1873 144.641 30.5469V30.7652H140.904C140.724 30.3885 140.587 29.9176 140.493 29.3526C140.407 28.7789 140.364 28.2053 140.364 27.6317ZM140.853 22.3021L140.878 24.3954H138.811C138.323 24.3954 137.899 24.451 137.539 24.5623C137.18 24.6736 136.884 24.832 136.653 25.0375C136.422 25.2344 136.251 25.4656 136.139 25.731C136.037 25.9964 135.985 26.2875 135.985 26.6043C135.985 26.9211 136.058 27.2079 136.204 27.4647C136.349 27.713 136.559 27.9099 136.833 28.0555C137.107 28.1925 137.428 28.261 137.796 28.261C138.352 28.261 138.836 28.1497 139.247 27.9271C139.658 27.7045 139.975 27.4305 140.198 27.1051C140.429 26.7798 140.549 26.4716 140.557 26.1805L141.533 27.7473C141.396 28.0983 141.208 28.4622 140.968 28.8389C140.737 29.2156 140.442 29.5709 140.082 29.9048C139.722 30.2301 139.29 30.4998 138.785 30.7139C138.28 30.9194 137.68 31.0221 136.987 31.0221C136.105 31.0221 135.305 30.8466 134.585 30.4956C133.875 30.136 133.31 29.6437 132.89 29.0187C132.479 28.3851 132.274 27.6659 132.274 26.8611C132.274 26.1334 132.411 25.487 132.685 24.9219C132.959 24.3569 133.361 23.8817 133.892 23.4964C134.431 23.1026 135.103 22.8072 135.908 22.6103C136.713 22.4048 137.646 22.3021 138.708 22.3021H140.853Z" fill="#24283E"/>
<path d="M146.94 11.0392H150.638V27.5803L150.266 30.7652H146.94V11.0392ZM159.436 23.6762V23.9459C159.436 24.9819 159.324 25.9322 159.102 26.7969C158.888 27.6616 158.554 28.4108 158.1 29.0444C157.646 29.6694 157.081 30.1574 156.405 30.5084C155.737 30.8509 154.949 31.0221 154.042 31.0221C153.194 31.0221 152.458 30.8509 151.833 30.5084C151.216 30.1659 150.698 29.6822 150.279 29.0572C149.859 28.4322 149.521 27.7002 149.264 26.8611C149.007 26.0221 148.815 25.106 148.686 24.1128V23.5221C148.815 22.5289 149.007 21.6128 149.264 20.7738C149.521 19.9348 149.859 19.2027 150.279 18.5777C150.698 17.9527 151.216 17.469 151.833 17.1265C152.449 16.7841 153.177 16.6129 154.016 16.6129C154.932 16.6129 155.728 16.7884 156.405 17.1394C157.09 17.4819 157.655 17.9699 158.1 18.6034C158.554 19.2284 158.888 19.9733 159.102 20.838C159.324 21.6942 159.436 22.6402 159.436 23.6762ZM155.737 23.9459V23.6762C155.737 23.1111 155.694 22.5803 155.608 22.0837C155.531 21.5786 155.394 21.1377 155.198 20.761C155.001 20.3757 154.731 20.0718 154.388 19.8492C154.055 19.6265 153.622 19.5152 153.091 19.5152C152.586 19.5152 152.158 19.6009 151.807 19.7721C151.456 19.9433 151.165 20.1831 150.934 20.4913C150.711 20.7995 150.544 21.1676 150.433 21.5957C150.322 22.0152 150.253 22.4776 150.227 22.9827V24.6651C150.253 25.3414 150.364 25.9408 150.561 26.463C150.767 26.9767 151.075 27.3834 151.486 27.6831C151.906 27.9741 152.449 28.1197 153.117 28.1197C153.639 28.1197 154.072 28.017 154.414 27.8115C154.757 27.606 155.022 27.3149 155.21 26.9382C155.407 26.5615 155.544 26.1206 155.621 25.6154C155.698 25.1017 155.737 24.5452 155.737 23.9459Z" fill="#24283E"/>
<path d="M169.234 27.6317V21.4416C169.234 20.9964 169.162 20.6154 169.016 20.2986C168.87 19.9733 168.644 19.7207 168.335 19.5409C168.036 19.3611 167.646 19.2712 167.167 19.2712C166.756 19.2712 166.4 19.344 166.101 19.4896C165.801 19.6265 165.57 19.8277 165.407 20.0932C165.245 20.35 165.163 20.6539 165.163 21.005H161.465C161.465 20.4142 161.602 19.8534 161.876 19.3226C162.15 18.7918 162.548 18.3252 163.07 17.9228C163.592 17.5118 164.213 17.1908 164.932 16.9596C165.66 16.7284 166.473 16.6129 167.372 16.6129C168.451 16.6129 169.41 16.7926 170.249 17.1522C171.088 17.5118 171.747 18.0512 172.227 18.7704C172.715 19.4896 172.959 20.3885 172.959 21.4673V27.4134C172.959 28.1753 173.006 28.8003 173.1 29.2884C173.194 29.7678 173.331 30.1873 173.511 30.5469V30.7652H169.774C169.594 30.3885 169.457 29.9176 169.363 29.3526C169.277 28.7789 169.234 28.2053 169.234 27.6317ZM169.722 22.3021L169.748 24.3954H167.68C167.192 24.3954 166.769 24.451 166.409 24.5623C166.049 24.6736 165.754 24.832 165.523 25.0375C165.292 25.2344 165.12 25.4656 165.009 25.731C164.906 25.9964 164.855 26.2875 164.855 26.6043C164.855 26.9211 164.928 27.2079 165.073 27.4647C165.219 27.713 165.429 27.9099 165.703 28.0555C165.977 28.1925 166.298 28.261 166.666 28.261C167.222 28.261 167.706 28.1497 168.117 27.9271C168.528 27.7045 168.845 27.4305 169.067 27.1051C169.299 26.7798 169.418 26.4716 169.427 26.1805L170.403 27.7473C170.266 28.0983 170.078 28.4622 169.838 28.8389C169.607 29.2156 169.311 29.5709 168.952 29.9048C168.592 30.2301 168.16 30.4998 167.655 30.7139C167.15 30.9194 166.55 31.0221 165.857 31.0221C164.975 31.0221 164.174 30.8466 163.455 30.4956C162.745 30.136 162.18 29.6437 161.76 29.0187C161.349 28.3851 161.144 27.6659 161.144 26.8611C161.144 26.1334 161.281 25.487 161.555 24.9219C161.829 24.3569 162.231 23.8817 162.762 23.4964C163.301 23.1026 163.973 22.8072 164.778 22.6103C165.583 22.4048 166.516 22.3021 167.578 22.3021H169.722Z" fill="#24283E"/>
</svg>
